<?xml version="1.0" encoding="UTF-8" standalone="no"?>
<svg width="148" height="153" viewBox="0 0 148 153" fill="none" xmlns="http://www.w3.org/2000/svg">
<path fill-rule="evenodd" clip-rule="evenodd" d="M95.2561 1.64917C98.3322 2.32175 101.293 3.38012 104.139 4.82172C95.737 4.40422 87.2765 4.19229 78.7588 4.18721C84.2575 3.34078 89.7574 2.49561 95.2561 1.64917Z" fill="#4C432E"/>
<path fill-rule="evenodd" clip-rule="evenodd" d="M95.256 1.64912C89.7573 2.49556 84.2574 3.34073 78.7587 4.18717C72.9796 6.394 67.6916 9.35462 62.8959 13.0703C61.8388 12.6477 60.7805 12.2239 59.7234 11.8013C69.3197 0.993039 81.1635 -2.39144 95.256 1.64912Z" fill="#907A51"/>
<path fill-rule="evenodd" clip-rule="evenodd" d="M54.6474 0.380165C56.3897 0.180929 58.0826 0.392855 59.7234 1.01468C55.8111 2.46009 52.004 4.1517 48.3023 6.09076C43.3061 12.0602 38.6539 18.1934 34.343 24.4916C34.4458 16.9054 37.8303 10.7709 44.4952 6.09076C47.7934 3.81287 51.1779 1.90934 54.6474 0.380165Z" fill="#7D6E4A"/>
<path fill-rule="evenodd" clip-rule="evenodd" d="M76.2209 15.6084C77.9125 15.6084 79.6054 15.6084 81.297 15.6084C81.5064 19.8596 81.2945 24.0893 80.6625 28.2986C80.396 26.3215 79.7615 24.6299 78.759 23.2225C74.7019 23.8228 70.6842 24.6679 66.7033 25.7606C64.2274 25.2682 62.3239 23.9992 60.9927 21.9535C65.5535 18.8749 70.6296 16.7594 76.2209 15.6084Z" fill="#9E8650"/>
<path fill-rule="evenodd" clip-rule="evenodd" d="M76.2209 15.6085C78.0217 14.4017 80.1359 13.9791 82.5661 14.3395C82.9518 22.0513 82.3173 29.6655 80.6625 37.1819C78.9658 32.7073 78.3313 28.0551 78.759 23.2226C79.7615 24.63 80.396 26.3216 80.6625 28.2987C81.2945 24.0894 81.5064 19.8597 81.297 15.6085C79.6054 15.6085 77.9126 15.6085 76.2209 15.6085Z" fill="#736340"/>
<path fill-rule="evenodd" clip-rule="evenodd" d="M95.2559 15.6085C128.794 15.526 146.349 32.0233 147.92 65.1003C143.037 37.796 126.75 23.6249 99.0629 22.5881C97.4665 20.3787 96.1975 18.0526 95.2559 15.6085Z" fill="#998151"/>
<path fill-rule="evenodd" clip-rule="evenodd" d="M17.8459 52.4101C17.4233 52.4101 16.9995 52.4101 16.5769 52.4101C18.0033 49.1842 19.0616 45.801 19.7495 42.2579C26.5857 35.3722 33.9892 29.6616 41.9573 25.1261C32.5602 33.4382 24.5235 42.5333 17.8459 52.4101Z" fill="#877650"/>
<path fill-rule="evenodd" clip-rule="evenodd" d="M48.3025 51.1411C44.4676 50.7553 40.6605 50.1208 36.8813 49.2375C37.9994 48.3391 38.8445 47.2807 39.4194 46.065C39.5603 45.282 39.9828 44.6475 40.6884 44.1614C47.88 43.315 55.0702 43.315 62.2618 44.1614C57.8925 47.0954 53.2403 49.4228 48.3025 51.1411Z" fill="#A28854"/>
<path fill-rule="evenodd" clip-rule="evenodd" d="M137.134 118.399C136.288 106.978 135.442 95.5568 134.596 84.1356C134.78 65.4416 129.281 48.7337 118.099 34.0092C119.885 33.6095 121.577 34.0321 123.175 35.2783C137.29 48.9786 142.789 65.6866 139.672 85.4046C139.829 96.5504 138.983 107.549 137.134 118.399Z" fill="#A08653"/>
<path fill-rule="evenodd" clip-rule="evenodd" d="M16.577 52.4102C16.9996 52.4102 17.4234 52.4102 17.846 52.4102C14.4907 55.5434 10.8956 58.504 7.05933 61.2933C9.05169 57.4063 12.2242 54.4457 16.577 52.4102Z" fill="#A28854"/>
<path fill-rule="evenodd" clip-rule="evenodd" d="M39.4193 46.0649C38.8444 47.2807 37.9992 48.339 36.8812 49.2375C40.6604 50.1207 44.4674 50.7552 48.3024 51.141C44.2733 52.1258 40.0436 52.3377 35.6122 51.7755C26.0945 59.6016 16.5769 67.4264 7.05921 75.2524C6.21277 78.2131 6.21277 81.175 7.05921 84.1356C11.9817 86.279 16.8459 88.6051 21.653 91.1152C17.3789 91.8043 13.1492 91.5924 8.96274 90.4807C9.247 95.1494 9.67086 99.8029 10.2318 104.44C19.5756 104.86 28.8826 104.436 38.1502 103.171C44.041 94.9527 50.1742 86.916 56.5511 79.0595C56.9508 80.8463 56.5282 82.5379 55.282 84.1356C50.1006 91.5353 45.2365 99.1494 40.6883 106.978C29.2988 108.244 17.8776 108.668 6.4247 108.247C6.33206 94.2408 4.2166 80.7042 0.0795898 67.6383C5.32953 68.0875 10.4056 67.453 15.3078 65.7348C22.8408 58.3986 30.8787 51.8415 39.4193 46.0649Z" fill="#947D4F"/>
<path fill-rule="evenodd" clip-rule="evenodd" d="M134.596 84.1356C135.442 95.5568 136.288 106.978 137.134 118.399C136.487 123.551 135.428 128.628 133.961 133.627C134.341 117.156 134.553 100.658 134.596 84.1356Z" fill="#544933"/>
<path fill-rule="evenodd" clip-rule="evenodd" d="M119.368 66.3693C124.701 78.2397 124.067 90.0847 117.464 101.902C113.445 106.766 109.427 111.631 105.408 116.496C95.0924 124.693 85.1509 133.366 75.5863 142.511C73.6548 145.354 71.9632 148.315 70.5102 151.394C69.462 145.012 70.731 139.091 74.3172 133.627C86.5849 121.36 98.8512 109.093 111.119 96.8258C117.253 87.5391 120.003 77.3869 119.368 66.3693Z" fill="#9F8552"/>
<path fill-rule="evenodd" clip-rule="evenodd" d="M50.8405 105.709C51.7783 105.543 52.6248 105.755 53.3786 106.344C43.2962 116.032 32.2976 124.493 20.384 131.724C14.6303 137.053 9.34225 142.763 4.52124 148.856C7.60242 139.796 12.8904 131.971 20.384 125.379C29.9702 117.843 40.1224 111.286 50.8405 105.709Z" fill="#927C51"/>
<path fill-rule="evenodd" clip-rule="evenodd" d="M105.408 48.603C113.241 65.0001 111.761 80.6509 100.967 95.5568C94.288 102.238 86.8858 107.949 78.759 112.689C65.9063 119.647 53.2161 126.838 40.6883 134.262C33.6833 140.002 27.1263 146.135 21.0185 152.663C20.6923 149.469 21.5388 146.508 23.5565 143.78C29.2252 136.841 35.3584 130.284 41.9573 124.11C55.2859 115.966 68.3999 107.506 81.297 98.7294C97.6382 86.1381 105.675 69.4289 105.408 48.603Z" fill="#A18652"/>
</svg>
